PathFileType	4	(X/Y/Z)	C:/Users/opensim2020/Desktop/walking_exp_matlab/subject01_walking07_straight_02.trc																																																																																																																															
DataRate	CameraRate	NumFrames	NumMarkers	Units	OrigDataRate	OrigDataStartFrame	OrigNumFrames																																																																																																																											
100	100	4	43	mm	100	1451	178																																																																																																																											
Frame#	Time	LFHD			RFHD			LBHD			RBHD			C7			T10			CLAV			STRN			RBAK			LSHO			LUPA			LELB			LFRM			LWRA			LWRB			LFIN			RSHO			RUPA			RELB			RFRM			RWRA			RWRB			RFIN			LASI			RASI			LPSI			RPSI			LTHI			LKNE			LTIB			LANK			LHEE			LTOE			RTHI			RKNE			RTIB			RANK			RHEE			RTOE			*39			*40			*41			*42		
		X1	Y1	Z1	X2	Y2	Z2	X3	Y3	Z3	X4	Y4	Z4	X5	Y5	Z5	X6	Y6	Z6	X7	Y7	Z7	X8	Y8	Z8	X9	Y9	Z9	X10	Y10	Z10	X11	Y11	Z11	X12	Y12	Z12	X13	Y13	Z13	X14	Y14	Z14	X15	Y15	Z15	X16	Y16	Z16	X17	Y17	Z17	X18	Y18	Z18	X19	Y19	Z19	X20	Y20	Z20	X21	Y21	Z21	X22	Y22	Z22	X23	Y23	Z23	X24	Y24	Z24	X25	Y25	Z25	X26	Y26	Z26	X27	Y27	Z27	X28	Y28	Z28	X29	Y29	Z29	X30	Y30	Z30	X31	Y31	Z31	X32	Y32	Z32	X33	Y33	Z33	X34	Y34	Z34	X35	Y35	Z35	X36	Y36	Z36	X37	Y37	Z37	X38	Y38	Z38	X39	Y39	Z39	X40	Y40	Z40	X41	Y41	Z41	X42	Y42	Z42	X43	Y43	Z43
																																																																																																																																		
23	0.22	-771.17981	1666.00903	1024.09009	-733.00769	1674.4762	1133.302	-881.51514	1619.10095	1059.25171	-845.46399	1627.76868	1175.08252	-909.34814	1427.4657	1093.85779	-946.03278	1134.94946	1094.98157	-765.88275	1360.22095	1087.43909	-723.77771	1205.04199	1083.13586	-960.65881	1234.85083	1173.1637	-829.88538	1391.25159	928.08771	-892.91479	1214.75916	844.72693	-939.58685	1074.53699	846.40265	-940.37036	961.99298	818.50909	-910.56415	824.16559	836.82135	-961.14728	841.16718	807.90479	-946.51007	755.409	805.99139	-820.98334	1390.64941	1241.11865	-860.15125	1192.53052	1350.8125	-840.30377	1067.93994	1365.75818	-770.06372	968.35223	1398.51294	-651.99078	894.07581	1380.57983	-691.07141	876.315	1419.78418	-626.17194	816.7431	1410.84888	-766.08832	930.71973	988.53552	-782.97321	927.68781	1207.37695	-954.5329	938.37775	1023.97443	-965.18457	947.39655	1167.33325	-731.00745	606.35968	918.26184	-698.35046	479.83618	943.5744	-680.71906	296.67255	934.62659	-614.52924	83.35801	986.01141	-642.00897	41.60091	1044.15454	-467.69107	91.7603	975.95593	-902.24628	605.90265	1250.29553	-928.68512	447.00272	1221.88672	-1018.84009	294.56583	1220.23254	-1080.67542	95.90952	1164.65808	-1130.73792	67.12529	1109.92883	-946.55103	39.53415	1169.83435	-750.89563	1707.21667	1112.78857	-1973.03613	1023.41937	3102.06934	-2012.56226	1022.20209	3140.72949	NaN	NaN	NaN
24	0.23	-761.4549	1664.97571	1022.86932	-723.33893	1673.47217	1132.01428	-871.7417	1618.15491	1057.99927	-835.8399	1626.87634	1173.76807	-899.64581	1426.44702	1092.83459	-936.17535	1133.85645	1094.40454	-756.13354	1359.1792	1086.5979	-713.94055	1204.03674	1082.61865	-950.95935	1233.81714	1172.41748	-820.31445	1389.84216	927.07813	-883.6264	1213.30103	844.0517	-930.6416	1073.26428	846.04944	-932.03375	960.77173	818.18481	-902.83307	822.92249	836.47119	-953.38959	840.04614	807.77026	-939.48383	754.34778	805.73132	-811.58105	1389.7041	1239.97632	-850.43243	1191.88867	1350.01379	-830.78967	1067.36194	1365.36353	-760.50708	967.78796	1398.06824	-642.61401	893.39429	1379.91553	-681.54608	875.79712	1419.49915	-616.68481	816.30676	1410.52429	-755.84027	929.49139	988.57526	-773.5257	926.56	1207.30945	-944.45496	937.44891	1022.96368	-955.50958	946.72235	1166.30237	-720.20972	605.90552	918.38141	-688.15875	479.27939	943.82214	-670.11597	295.77603	935.00208	-601.83002	83.25017	986.28839	-629.69098	40.72906	1043.90662	-455.00101	92.87453	977.68628	-894.5498	605.30542	1250.32129	-921.92383	446.522	1222.02612	-1014.34924	295.34479	1220.28772	-1079.83459	97.82097	1165.19836	-1130.22632	69.84108	1110.29492	-946.34552	39.3948	1169.85437	-741.12238	1706.4054	1111.66309	-1973.06775	1023.40308	3102.01978	-2012.5415	1021.91754	3140.88745	NaN	NaN	NaN
25	0.24	-751.60291	1663.97913	1021.41028	-713.61584	1672.55347	1130.70264	-861.96674	1617.19385	1056.49414	-826.14508	1626.00574	1172.27393	-889.95782	1425.42822	1091.7229	-926.55408	1132.93958	1093.72278	-746.36749	1358.20581	1085.70215	-704.04425	1203.13562	1081.87463	-941.14441	1232.78394	1171.40942	-810.59143	1388.53857	925.97845	-874.0415	1211.79724	843.35352	-921.40582	1072.01099	845.51068	-923.11945	959.48199	817.86414	-894.94604	821.50909	836.3017	-945.19611	838.9115	807.64606	-931.56342	753.05859	805.59088	-801.75458	1389.04688	1239.16394	-840.7135	1191.32629	1349.1322	-821.3894	1066.80957	1364.77185	-751.25739	967.29285	1397.53662	-633.60156	892.48138	1379.22742	-672.41827	874.97845	1418.75415	-607.58142	815.55646	1410.22595	-745.35382	928.42987	988.54102	-763.86035	925.41815	1207.12476	-934.19177	936.604	1021.92328	-945.68829	945.98468	1165.12903	-708.10291	605.85889	919.16498	-677.18561	478.80069	944.38861	-660.15942	294.76947	935.35712	-591.80316	81.89516	987.06171	-619.9859	39.4502	1044.13367	-445.31635	92.16193	978.68585	-886.44177	604.75116	1250.25879	-914.76733	445.95627	1222.19226	-1009.6344	296.22049	1220.2489	-1078.48975	99.79515	1165.63989	-1129.31091	72.66329	1110.90942	-946.05756	39.36694	1169.86743	-731.37341	1705.31677	1110.19019	-1972.77295	1023.15448	3102.64526	-2012.57666	1022.02661	3140.6521	NaN	NaN	NaN
26	0.25	-741.71124	1662.98999	1020.03552	-703.86584	1671.70313	1129.20093	-852.15503	1616.30688	1054.93506	-816.46844	1625.26709	1170.83057	-880.04364	1424.50256	1090.48828	-916.49445	1131.948	1092.92236	-736.54419	1357.36572	1084.4895	-694.0741	1202.26367	1081.09253	-931.34192	1231.8855	1170.36963	-800.90582	1387.35742	924.84192	-864.14026	1210.35718	842.53839	-911.5686	1070.60376	845.04303	-913.77795	958.18597	817.43732	-886.11786	820.16095	836.0799	-936.27631	837.6748	807.354	-922.98932	751.93231	805.29926	-792.00586	1388.39575	1237.96936	-831.04034	1190.73401	1348.02026	-812.06506	1066.29663	1363.95276	-742.2063	966.51678	1396.64038	-624.89264	891.37927	1378.55383	-663.76849	874.05188	1418.07434	-599.10474	814.54669	1409.85559	-735.0282	927.42822	988.4364	-753.99689	924.46838	1206.94604	-923.79663	935.85217	1020.84338	-935.73755	945.26678	1163.98779	-694.91614	605.92639	920.35468	-665.57849	478.47253	945.19263	-650.91034	293.71014	935.70782	-584.8042	80.47871	987.67419	-612.76862	37.96352	1045.02832	-438.04242	89.78661	979.21301	-877.94318	604.16107	1250.11255	-907.11414	445.23746	1222.375	-1004.51233	297.18967	1220.32153	-1076.83691	101.93185	1165.96973	-1128.58167	75.86519	1111.34485	-945.8916	39.67697	1170.09387	-721.57416	1704.56567	1108.69019	-1973	1023.68561	3102.04517	-2012.58179	1022.1261	3140.66455	NaN	NaN	NaN
